<?xml version="1.0" encoding="utf-8"?>
<!-- Generator: Adobe Illustrator 16.0.0, SVG Export Plug-In . SVG Version: 6.00 Build 0)  -->
<!DOCTYPE svg PUBLIC "-//W3C//DTD SVG 1.1//EN" "http://www.w3.org/Graphics/SVG/1.1/DTD/svg11.dtd">
<svg version="1.1" id="Layer_1" xmlns="http://www.w3.org/2000/svg" xmlns:xlink="http://www.w3.org/1999/xlink" x="0px" y="0px"
	 width="1745.651px" height="1913.617px" viewBox="0 0 1745.651 1913.617" enable-background="new 0 0 1745.651 1913.617"
	 xml:space="preserve">
<g>
	<path fill="#414042" d="M800.563,953.583l-388.906,1.066c-83.109,0.217-151.25-67.545-151.383-151.129l-0.086-112.025
		c-0.422-83.461,67.305-151.502,150.648-151.43l388.492-0.945c54.727-0.182,102.195,29.133,128.922,72.451l204.742-0.303
		c-35.977-151.721-171.938-264.533-333.805-264.219l-388.57,0.908C221.126,348.346,67.673,502.647,68.111,691.665l0.328,112.268
		c0.352,189.576,154.617,343.029,343.695,342.568l389.031-0.799c161.945-0.291,297.25-114.061,332.234-265.648l-204.305,0.533
		C902.251,924.098,854.868,953.557,800.563,953.583z"/>
	<path fill="#6FBF46" d="M1677.298,385.061c-0.148-189.176-154.57-342.871-343.758-342.47l-388.523,0.92
		c-162.422,0.23-297.75,113.939-332.914,265.648l204.742-0.303c26.219-43.682,73.938-73.287,128.359-73.311l388.555-0.908
		c83.609-0.109,151.25,67.436,151.688,150.957l0.07,111.965c0.438,83.414-67.281,151.564-150.594,151.443l-388.914,1.113
		c-54.352,0-102.094-29.145-128.609-72.656l-76.75,0.145H612.103v904.465h205.093V816.555
		c39.984,16.328,83.578,25.584,129.367,25.463l388.695-0.654c189.047-0.484,342.813-154.932,342.281-343.963L1677.298,385.061z"/>
	<path fill="#414042" d="M1359.149,1712.345l-48.578-133.32c19.023-39.248,39.445-89.131,62.875-154.035l98.602-278.489h-140.977
		l-51.898,207.553c-6.055,24.228-12.961,56.208-19.016,78.714h-2.594c-5.211-22.506-13.828-53.613-20.758-78.714l-63.141-207.553
		h-146.133l154.781,386.591c0.391,0.775,0.758,1.525,1.117,2.277l2.664,6.662c1.867,5.596,2.281,9.738,2.281,12.67
		c0,6.082-2.617,12.986-6.93,19.043c-12.961,21.635-34.57,42.373-54.461,52.766c-3.18,1.914-6.375,3.732-9.57,5.428
		c-7.078-3.367-14.758-5.766-22.898-7.025c-44.188-6.664-85.398,23.766-92.086,67.932c-6.641,44.189,23.742,85.375,67.93,92.037
		c33.367,5.039,65.031-11.021,81.406-38.229c23.211-8.965,48.43-22.799,72.945-44.045c6.227-5.572,12.383-11.58,18.438-18.195
		l25.219,62.869c-5.688,9.109-9.664,19.479-11.383,30.768c-6.641,44.191,23.742,85.4,67.953,92.063
		c44.164,6.662,85.375-23.693,92.063-67.883C1423.11,1761.454,1397.743,1723.272,1359.149,1712.345z M1075.188,1752.925
		c-26.555-3.996-44.75-28.709-40.773-55.262c3.07-20.471,18.508-35.977,37.57-40.191c5.672-1.236,11.633-1.502,17.711-0.605
		c26.531,4.021,44.773,28.732,40.75,55.285c-2.953,19.576-17.18,34.621-35.078,39.588
		C1088.993,1753.483,1082.142,1753.991,1075.188,1752.925z M1258.853,1551.964c-18.781,0-34.016-15.24-34.016-34.064
		c0-18.799,15.234-33.99,34.016-33.99c18.797,0,34.039,15.191,34.039,33.99C1292.892,1536.724,1277.649,1551.964,1258.853,1551.964z
		 M1385.001,1797.358c-4,26.527-28.734,44.818-55.266,40.797c-20.781-3.125-36.461-18.994-40.359-38.473
		c-1.094-5.377-1.258-11.047-0.414-16.813c4-26.504,28.734-44.723,55.289-40.773c14.484,2.18,26.477,10.563,33.75,21.998
		C1384.056,1773.64,1386.837,1785.292,1385.001,1797.358z"/>
</g>
</svg>
