<?xml version="1.0" encoding="utf-8"?>
<!-- Generator: Adobe Illustrator 16.0.0, SVG Export Plug-In . SVG Version: 6.00 Build 0)  -->
<!DOCTYPE svg PUBLIC "-//W3C//DTD SVG 1.1//EN" "http://www.w3.org/Graphics/SVG/1.1/DTD/svg11.dtd">
<svg version="1.1" id="Layer_1" xmlns="http://www.w3.org/2000/svg" xmlns:xlink="http://www.w3.org/1999/xlink" x="0px" y="0px"
	 width="746px" height="848px" viewBox="0 0 746 848" enable-background="new 0 0 746 848" xml:space="preserve">
<g>
	<path fill="#6FBF46" d="M712.831,186.815c-0.064-81.337-66.459-147.419-147.8-147.247l-167.048,0.396
		c-69.833,0.099-128.018,48.989-143.137,114.217l88.03-0.13c11.272-18.781,31.79-31.51,55.189-31.52l167.059-0.391
		c35.95-0.047,65.032,28.994,65.22,64.905l0.029,48.14c0.19,35.864-28.928,65.166-64.748,65.114l-167.215,0.479
		c-23.368,0-43.895-12.53-55.296-31.239l-32.999,0.063h-55.27v388.88h88.181V372.338c17.191,7.021,35.935,11,55.621,10.948
		l167.122-0.281c81.281-0.208,147.395-66.615,147.165-147.889L712.831,186.815z"/>
	<path fill="#414042" d="M335.876,431.254l-167.213,0.458c-35.733,0.093-65.031-29.042-65.087-64.979l-0.037-48.165
		c-0.182-35.886,28.938-65.14,64.772-65.109l167.034-0.406c23.53-0.078,43.939,12.525,55.43,31.15l88.03-0.13
		c-15.47-65.233-73.926-113.738-143.521-113.602l-167.067,0.391c-81.474,0.167-147.452,66.509-147.264,147.778l0.141,48.27
		c0.151,81.511,66.478,147.489,147.774,147.289l167.265-0.342c69.628-0.125,127.804-49.042,142.844-114.218l-87.84,0.229
		C379.597,418.577,359.224,431.243,335.876,431.254z"/>
	<path fill="#414042" d="M576.041,757.487l-20.887-57.32c8.181-16.877,16.961-38.324,27.035-66.229l42.394-119.739H563.97
		l-22.313,89.24c-2.604,10.416-5.573,24.165-8.178,33.842h-1.113c-2.242-9.677-5.945-23.051-8.926-33.842l-27.147-89.24h-62.83
		l66.548,166.218c0.168,0.334,0.326,0.654,0.48,0.979l1.146,2.863c0.803,2.406,0.981,4.188,0.981,5.446
		c0,2.615-1.126,5.585-2.98,8.188c-5.573,9.303-14.864,18.219-23.416,22.688c-1.366,0.822-2.74,1.604-4.115,2.334
		c-3.042-1.448-6.345-2.48-9.845-3.022c-18.998-2.864-36.717,10.219-39.593,29.207c-2.854,19,10.208,36.709,29.208,39.572
		c14.345,2.166,27.96-4.738,34.999-16.437c9.98-3.854,20.824-9.802,31.363-18.937c2.677-2.396,5.323-4.98,7.929-7.823l10.842,27.031
		c-2.444,3.916-4.155,8.374-4.893,13.229c-2.856,18.999,10.207,36.715,29.216,39.58c18.988,2.866,36.708-10.185,39.583-29.184
		C603.541,778.603,592.636,762.186,576.041,757.487z M453.951,774.936c-11.417-1.72-19.24-12.344-17.53-23.76
		c1.32-8.802,7.958-15.469,16.153-17.28c2.438-0.532,5.002-0.646,7.615-0.261c11.406,1.729,19.249,12.353,17.52,23.769
		c-1.27,8.419-7.386,14.886-15.081,17.022C459.888,775.176,456.941,775.394,453.951,774.936z M532.918,688.531
		c-8.074,0-14.625-6.554-14.625-14.646c0-8.083,6.551-14.614,14.625-14.614c8.082,0,14.636,6.531,14.636,14.614
		C547.554,681.978,541,688.531,532.918,688.531z M587.157,794.039c-1.721,11.405-12.354,19.27-23.762,17.541
		c-8.936-1.343-15.676-8.166-17.353-16.541c-0.471-2.313-0.541-4.75-0.179-7.229c1.72-11.396,12.354-19.229,23.771-17.532
		c6.229,0.938,11.383,4.543,14.511,9.46C586.751,783.841,587.945,788.851,587.157,794.039z"/>
</g>
</svg>
